<svg width="58" height="58" viewBox="0 0 58 58" fill="none" xmlns="http://www.w3.org/2000/svg">
<circle cx="29" cy="29" r="28" stroke="white" stroke-width="2"/>
<path fill-rule="evenodd" clip-rule="evenodd" d="M29 9C17.95 9 9 17.95 9 29C9 37.85 14.725 45.325 22.675 47.975C23.675 48.15 24.05 47.55 24.05 47.025C24.05 46.55 24.025 44.975 24.025 43.3C19 44.225 17.7 42.075 17.3 40.95C17.075 40.375 16.1 38.6 15.25 38.125C14.55 37.75 13.55 36.825 15.225 36.8C16.8 36.775 17.925 38.25 18.3 38.85C20.1 41.875 22.975 41.025 24.125 40.5C24.3 39.2 24.825 38.325 25.4 37.825C20.95 37.325 16.3 35.6 16.3 27.95C16.3 25.775 17.075 23.975 18.35 22.575C18.15 22.075 17.45 20.025 18.55 17.275C18.55 17.275 20.225 16.75 24.05 19.325C25.65 18.875 27.35 18.65 29.05 18.65C30.75 18.65 32.45 18.875 34.05 19.325C37.875 16.725 39.55 17.275 39.55 17.275C40.65 20.025 39.95 22.075 39.75 22.575C41.025 23.975 41.8 25.75 41.8 27.95C41.8 35.625 37.125 37.325 32.675 37.825C33.4 38.45 34.025 39.65 34.025 41.525C34.025 44.2 34 46.35 34 47.025C34 47.55 34.375 48.175 35.375 47.975C39.3453 46.6345 42.7953 44.0828 45.2394 40.6789C47.6836 37.2751 48.9988 33.1905 49 29C49 17.95 40.05 9 29 9Z" fill="white"/>
</svg>
